<svg width="127" height="42" viewBox="0 0 127 42" fill="none" xmlns="http://www.w3.org/2000/svg">
<path d="M5.95312 7.9375C2.6541 7.9375 0 10.5916 0 13.8906V113.109C0 116.408 2.6541 119.062 5.95312 119.062H9.92188C13.2209 119.062 15.875 116.408 15.875 113.109V13.8906C15.875 10.5916 13.2209 7.9375 9.92188 7.9375H5.95312ZM27.7812 7.9375C25.5984 7.9375 23.8125 9.72344 23.8125 11.9062V115.094C23.8125 117.277 25.5984 119.062 27.7812 119.062C29.9641 119.062 31.75 117.277 31.75 115.094V11.9062C31.75 9.72344 29.9641 7.9375 27.7812 7.9375ZM45.6406 7.9375C42.3416 7.9375 39.6875 10.5916 39.6875 13.8906V113.109C39.6875 116.408 42.3416 119.062 45.6406 119.062H49.6094C52.9084 119.062 55.5625 116.408 55.5625 113.109V13.8906C55.5625 10.5916 52.9084 7.9375 49.6094 7.9375H45.6406ZM69.4531 7.9375C66.1541 7.9375 63.5 10.5916 63.5 13.8906V113.109C63.5 116.408 66.1541 119.062 69.4531 119.062H73.4219C76.7209 119.062 79.375 116.408 79.375 113.109V13.8906C79.375 10.5916 76.7209 7.9375 73.4219 7.9375H69.4531ZM111.125 13.8906V113.109C111.125 116.408 113.779 119.062 117.078 119.062H121.047C124.346 119.062 127 116.408 127 113.109V13.8906C127 10.5916 124.346 7.9375 121.047 7.9375H117.078C113.779 7.9375 111.125 10.5916 111.125 13.8906ZM95.25 11.9062V115.094C95.25 117.277 97.0359 119.062 99.2188 119.062C101.402 119.062 103.188 117.277 103.188 115.094V11.9062C103.188 9.72344 101.402 7.9375 99.2188 7.9375C97.0359 7.9375 95.25 9.72344 95.25 11.9062Z" fill="#CA0538"/>
</svg>
