<svg width="395" height="395" viewBox="0 0 395 395" fill="none" xmlns="http://www.w3.org/2000/svg">
<g clip-path="url(#clip0_118_212)">
<path d="M370.312 18.5156C370.312 8.25488 362.058 -3.60832e-07 351.797 -8.09344e-07L43.2032 -1.42984e-05C32.9424 -1.47469e-05 24.6875 8.25487 24.6875 18.5156L24.6875 30.8594C24.6875 41.1201 32.9424 49.375 43.2032 49.375L351.797 49.375C362.058 49.375 370.312 41.1201 370.312 30.8594L370.312 18.5156ZM370.312 86.4063C370.312 79.6172 364.758 74.0625 357.969 74.0625L37.0313 74.0625C30.2422 74.0625 24.6875 79.6172 24.6875 86.4062C24.6875 93.1953 30.2422 98.75 37.0313 98.75L357.969 98.75C364.758 98.75 370.312 93.1953 370.312 86.4063ZM370.312 141.953C370.312 131.692 362.058 123.438 351.797 123.438L43.2032 123.437C32.9424 123.437 24.6875 131.692 24.6875 141.953L24.6875 154.297C24.6875 164.558 32.9424 172.813 43.2031 172.813L351.797 172.813C362.058 172.813 370.312 164.558 370.312 154.297L370.312 141.953ZM370.312 216.016C370.312 205.755 362.058 197.5 351.797 197.5L43.2031 197.5C32.9424 197.5 24.6875 205.755 24.6875 216.016L24.6875 228.359C24.6875 238.62 32.9424 246.875 43.2031 246.875L351.797 246.875C362.058 246.875 370.312 238.62 370.312 228.359L370.312 216.016ZM351.797 345.625L43.2031 345.625C32.9424 345.625 24.6875 353.88 24.6875 364.141L24.6875 376.484C24.6875 386.745 32.9424 395 43.2031 395L351.797 395C362.058 395 370.312 386.745 370.312 376.484L370.312 364.141C370.312 353.88 362.058 345.625 351.797 345.625ZM357.969 296.25L37.0313 296.25C30.2422 296.25 24.6875 301.805 24.6875 308.594C24.6875 315.383 30.2422 320.938 37.0313 320.938L357.969 320.938C364.758 320.938 370.312 315.383 370.312 308.594C370.312 301.805 364.758 296.25 357.969 296.25Z" fill="#EF0644"/>
</g>
<defs>
<clipPath id="clip0_118_212">
<rect width="395" height="395" fill="white" transform="translate(395) rotate(90)"/>
</clipPath>
</defs>
</svg>
