<svg width="459" height="470" viewBox="0 0 459 470" fill="none" xmlns="http://www.w3.org/2000/svg">
<g clip-path="url(#clip0_118_213)">
<path d="M65.0472 209.93C53.0541 209.93 43.3648 200.258 43.3648 188.285L43.3648 101.704C43.3648 89.731 53.0541 80.0582 65.0472 80.0582C77.0403 80.0582 86.7296 89.731 86.7296 101.704L86.7296 166.64L151.777 166.64C163.77 166.64 173.459 176.312 173.459 188.285L173.459 253.221L238.507 253.221C250.5 253.221 260.189 262.894 260.189 274.866L260.189 339.802L325.236 339.802C337.229 339.802 346.919 349.475 346.919 361.448L346.919 448.029C346.919 460.002 337.229 469.675 325.236 469.675C313.243 469.675 303.554 460.002 303.554 448.029L303.554 383.093L238.506 383.093C226.513 383.093 216.824 373.42 216.824 361.448L216.824 296.512L151.777 296.512C139.784 296.512 130.094 286.839 130.094 274.866L130.094 209.93L65.0472 209.93Z" fill="#EF0644"/>
</g>
<g clip-path="url(#clip1_118_213)">
<path d="M150.442 129.872C138.449 129.872 128.76 120.199 128.76 108.227L128.76 21.6454C128.76 9.67285 138.449 6.18822e-05 150.442 6.29307e-05C162.435 6.39792e-05 172.125 9.67286 172.125 21.6454L172.125 86.5815L237.172 86.5815C249.165 86.5815 258.854 96.2543 258.854 108.227L258.854 173.163L323.902 173.163C335.895 173.163 345.584 182.836 345.584 194.808L345.584 259.744L410.631 259.744C422.624 259.744 432.314 269.417 432.314 281.39L432.314 367.971C432.314 379.944 422.624 389.616 410.631 389.616C398.638 389.616 388.949 379.944 388.949 367.971L388.949 303.035L323.902 303.035C311.908 303.035 302.219 293.362 302.219 281.39L302.219 216.454L237.172 216.454C225.179 216.454 215.489 206.781 215.489 194.808L215.489 129.872L150.442 129.872Z" fill="#EF0644"/>
</g>
<rect x="154.779" y="37.3605" width="96.0698" height="37.3605" transform="rotate(-180 154.779 37.3605)" fill="#EF0644"/>
<defs>
<clipPath id="clip0_118_213">
<rect width="389.616" height="346.919" fill="white" transform="translate(0 469.674) rotate(-90)"/>
</clipPath>
<clipPath id="clip1_118_213">
<rect width="389.616" height="346.919" fill="white" transform="translate(112.081 389.616) rotate(-90)"/>
</clipPath>
</defs>
</svg>
