<svg width="75" height="69" viewBox="0 0 75 69" fill="none" xmlns="http://www.w3.org/2000/svg">
<g clip-path="url(#clip0_56_80)">
<path d="M73.8125 29.6667C76.0596 29.6667 77.875 31.479 77.875 33.7222V49.9444C77.875 52.1877 76.0596 54 73.8125 54C71.5654 54 69.75 52.1877 69.75 49.9444V37.7778L57.5625 37.7778C55.3154 37.7778 53.5 35.9655 53.5 33.7222L53.5 21.5556H41.3125C39.0654 21.5556 37.25 19.7432 37.25 17.5V5.33333L25.0625 5.33333C22.8154 5.33333 21 3.52101 21 1.27778L21 -14.9444C21 -17.1877 22.8154 -19 25.0625 -19C27.3096 -19 29.125 -17.1877 29.125 -14.9444V-2.77778L41.3125 -2.77778C43.5596 -2.77778 45.375 -0.965452 45.375 1.27778V13.4444H57.5625C59.8096 13.4444 61.625 15.2568 61.625 17.5L61.625 29.6667H73.8125Z" fill="#CA0538"/>
</g>
<g clip-path="url(#clip1_56_80)">
<path d="M57.8125 44.6667C60.0596 44.6667 61.875 46.479 61.875 48.7222V64.9444C61.875 67.1877 60.0596 69 57.8125 69C55.5654 69 53.75 67.1877 53.75 64.9444V52.7778L41.5625 52.7778C39.3154 52.7778 37.5 50.9655 37.5 48.7222L37.5 36.5556H25.3125C23.0654 36.5556 21.25 34.7432 21.25 32.5V20.3333L9.0625 20.3333C6.81543 20.3333 5 18.521 5 16.2778L5 0.0555553C5 -2.18767 6.81543 -4 9.0625 -4C11.3096 -4 13.125 -2.18767 13.125 0.0555553V12.2222L25.3125 12.2222C27.5596 12.2222 29.375 14.0345 29.375 16.2778V28.4444H41.5625C43.8096 28.4444 45.625 30.2568 45.625 32.5L45.625 44.6667H57.8125Z" fill="#CA0538"/>
</g>
<rect x="57" y="62" width="18" height="7" fill="#CA0538"/>
<defs>
<clipPath id="clip0_56_80">
<rect width="73" height="65" fill="white" transform="matrix(0 1 -1 0 86 -19)"/>
</clipPath>
<clipPath id="clip1_56_80">
<rect width="73" height="65" fill="white" transform="matrix(0 1 -1 0 65 -4)"/>
</clipPath>
</defs>
</svg>
